<svg version="1.2" xmlns="http://www.w3.org/2000/svg" viewBox="0 0 512 512" width="512" height="512">
	<title>illustrations-coffee-gear-svg</title>
	<style>
		.s0 { fill: #000000 } 
	</style>
	<path id="Layer" fill-rule="evenodd" class="s0" d="m247.4 95.7c0-13.4 0.5-24.9 17.4-29.1q-0.1-0.3-0.2-0.6q-0.1-0.3-0.2-0.7q-0.1-0.3-0.1-0.6q-0.1-0.4-0.1-0.7v-2.4h-0.3l2.9-15.6q1.2-2.4 3-4.3q1.7-2 3.9-3.5q2.2-1.4 4.7-2.4q2.4-0.9 5.1-1.2q-0.1-0.1-0.1-0.2q0-0.1 0-0.3q0-0.1 0-0.2q0-0.1 0.1-0.3v-8.3q-0.1-0.2-0.1-0.4q0-0.1 0-0.3q0-0.2 0-0.4q0-0.2 0.1-0.3c3.9-23.9 27.6-23.6 46.7-23.4h5l21.9-0.5h0.7c18.7 0.9 30.9 8.3 44.9 16.7c9.9 6.1 39.2 10.1 46.3 20.3q1.5 2.2 2.7 4.6q1.2 2.4 2 4.9q0.8 2.5 1.2 5.1q0.4 2.6 0.4 5.3v74.3q0.1 2.6-0.5 5.2q-0.6 2.5-1.8 4.8q-1.3 2.4-3.1 4.2q-1.8 1.9-4.1 3.3c-5.1 3.5-32.5 5.7-41.7 6.9q-8.2 5.5-16.6 10.6q-8.5 5.2-17 10.2q-8.6 4.9-17.3 9.6q-8.7 4.6-17.5 9.1q-1.9 0.9-3.8 1.7q-1.9 0.8-3.8 1.5q-2 0.7-4 1.2q-2 0.5-4.1 0.8v11.2h68.7q1.1 0 2.1 0.3q1 0.3 1.9 0.8q0.8 0.6 1.5 1.4q0.7 0.8 1.2 1.7l38.8 74.9q0.3 0.5 0.4 0.9q0.2 0.5 0.3 0.9q0.1 0.5 0.1 1q0.1 0.5 0 0.9l0.7 209.7q0 1.5-0.6 2.8q-0.5 1.3-1.5 2.3q-1.1 1.1-2.4 1.6q-1.3 0.5-2.7 0.6h-365.3q-1.4-0.1-2.7-0.6q-1.3-0.5-2.3-1.5q-1-1-1.6-2.2q-0.5-1.3-0.6-2.7v-210.3l39.5-75q0.5-0.8 1.1-1.6q0.7-0.7 1.5-1.2q0.9-0.5 1.8-0.8q1-0.2 2-0.2h68.1v-72.3c0-1.2 0.2-2.4 0.7-3.5c0.4-1.1 1.1-2.1 1.9-2.9c0.9-0.8 1.9-1.5 2.9-2c1.1-0.4 2.3-0.6 3.5-0.6h23.3q-0.8-3.3-0.8-6.7q0-3.3 0.8-6.6q0.8-3.3 2.3-6.2q1.6-3 3.9-5.5c17.3-20 38.7-7.2 39-12.9zm58.3 104.3c-21.8-4.2-31.5-27.8-13.1-45.4h-56.2q-3.2 0.2-6.3-0.2q-3.1-0.4-6.1-1.2q-3.1-0.8-5.9-2.1q-2.9-1.3-5.5-3h-28.2v100.6h121.2v-48.5zm-235.2 101.5v195.6h350.6l-0.6-195.6zm160.5-80.9c-1.9 0-3.7-0.8-5.1-2.1c-1.3-1.4-2.1-3.2-2.1-5.2c0-1.9 0.8-3.7 2.1-5.1c1.4-1.3 3.2-2.1 5.1-2.1h28c1.9 0 3.8 0.8 5.1 2.1c1.4 1.4 2.1 3.2 2.1 5.1c0 2-0.7 3.8-2.1 5.2c-1.3 1.3-3.2 2.1-5.1 2.1zm165.6-76.2q0.3-0.2 0.7-0.4q0.3-0.2 0.7-0.3q0.3-0.2 0.7-0.2q0.4-0.1 0.8-0.2c7.8-0.9 34-2.6 37.5-5q1-0.5 1.7-1.3q0.8-0.7 1.4-1.6q0.5-1 0.8-2q0.3-1 0.3-2.1v-73.9q0-1.7-0.3-3.4q-0.3-1.7-0.8-3.3q-0.6-1.6-1.3-3.1q-0.8-1.6-1.8-3c-5.2-7.2-34.8-12.1-42.5-16.8c-30.4-18.5-29.9-13.8-62.5-14.4c-14.1 0-31.6-0.5-33.8 12.4v8.4c4.2 0 8.1 0.3 12 0.5c3.9 0.2 6.8 0.5 10.1 0.5c1.6 0 3.2 0.6 4.4 1.8c1.2 1.2 1.8 2.8 1.8 4.4c0 1.7-0.6 3.3-1.8 4.4c-1.2 1.2-2.8 1.9-4.4 1.9c-3.3 0-7-0.2-10.9-0.5c-13.4-0.8-28.6-1.8-30.6 8.8c0 0.4 0 9.2 0 9.7c4.8 0 9.7 0 14.6 0.5c3.6 0.2 6.9 0.4 10.1 0.4c1.7 0 3.3 0.7 4.5 1.9c1.1 1.1 1.8 2.7 1.8 4.4c0 1.6-0.7 3.2-1.8 4.4c-1.2 1.2-2.8 1.8-4.5 1.8c-3.2 0-7-0.2-10.9-0.4c-13.3-0.9-28.6-1.9-30.5 8.8v8.3q0 0.2 0 0.4q0 0.3-0.1 0.5q0 0.2 0 0.4q-0.1 0.2-0.1 0.4h24.4c1.6 0 3.2 0.6 4.4 1.8c1.1 1.2 1.8 2.8 1.8 4.4c0 1.7-0.7 3.3-1.8 4.4c-1.2 1.2-2.8 1.9-4.4 1.9h-49.1c-13.1 0-27.8 8.3-20.9 22.2q0.1 0.2 0.2 0.4q0.1 0.2 0.2 0.4q0.2 0.2 0.3 0.3q0.1 0.2 0.2 0.4v0.2l0.2 0.2h1l0.6 0.3h110.5c8.1 0 8.3 9.9 0 10q-2 0-3.9 0.2q-2 0.1-3.9 0.4q-1.9 0.2-3.9 0.6q-1.9 0.3-3.8 0.8h-3.3q-0.6 0.4-1.2 0.8q-0.5 0.5-1.1 0.9q-0.5 0.5-1 1.1q-0.5 0.5-0.9 1c-5.6 7.2-5.3 17.8 4.2 21.5h9.7l1.6-0.3c17.3-3.6 39-16.2 74.7-41.6zm-289.1 81.6l-32.2 60.9h340.7l-31.6-60.9h-64.2v22.7h16c1.9 0 3.7 0.7 5.1 2.1c1.3 1.3 2.1 3.2 2.1 5.1c0 1.9-0.8 3.8-2.1 5.1c-1.4 1.4-3.2 2.1-5.1 2.1h-178.4c-1.9 0-3.8-0.7-5.1-2.1c-1.4-1.3-2.1-3.2-2.1-5.1c0-1.9 0.7-3.8 2.1-5.1c1.3-1.4 3.2-2.1 5.1-2.1h12.3v-22.7zm54.6 138.1h24.4l-18 72.4h-33.8l-18-72.4h24.5l9.8 45.8h1.1zm41.7-177.5c-1.9 0-3.8-0.7-5.1-2.1c-1.4-1.4-2.1-3.2-2.1-5.1c0-1.9 0.7-3.8 2.1-5.1c1.3-1.4 3.2-2.2 5.1-2.2h55.1c1.9 0 3.8 0.8 5.2 2.2c1.3 1.3 2.1 3.2 2.1 5.1c0 1.9-0.8 3.7-2.1 5.1c-1.4 1.4-3.3 2.1-5.2 2.1zm-14.9 213.7c0-13.2 2.4-22.8 7.4-28.9c4.9-6 13.9-9.1 26.7-9.1c12.9 0 21.9 3.1 26.8 9.1c5 6.1 7.4 15.7 7.4 28.9q0.1 2.1 0 4.2q-0.1 2.1-0.3 4.2q-0.2 2.1-0.5 4.2q-0.3 2-0.7 4.1q-0.3 1.6-0.9 3.1q-0.5 1.6-1.2 3q-0.6 1.5-1.5 2.9q-0.8 1.4-1.8 2.7q-1 1.3-2.2 2.4q-1.2 1.1-2.5 2q-1.4 1-2.8 1.7q-1.5 0.7-3.1 1.2q-2 0.6-4 1.1q-2.1 0.4-4.2 0.7q-2.1 0.3-4.2 0.4q-2.1 0.2-4.2 0.1q-2.1 0.1-4.2-0.1q-2.2-0.1-4.3-0.4q-2-0.3-4.1-0.7q-2.1-0.5-4.1-1.1q-1.6-0.5-3-1.2q-1.5-0.7-2.8-1.7q-1.4-0.9-2.6-2q-1.2-1.1-2.2-2.4q-1-1.3-1.8-2.7q-0.8-1.4-1.5-2.9q-0.7-1.4-1.2-3q-0.5-1.5-0.9-3.1q-0.4-2.1-0.7-4.1q-0.3-2.1-0.5-4.2q-0.2-2.1-0.3-4.2q-0.1-2.1 0-4.2zm25-12v30.1h9.6q0.9 0.1 1.7 0q0.9 0 1.8-0.2q0.9-0.1 1.7-0.3q0.8-0.3 1.7-0.6q2.1-1.1 2.1-5v-30.2h-9.8q-0.9 0-1.8 0q-0.8 0.1-1.7 0.2q-0.9 0.2-1.7 0.4q-0.8 0.2-1.6 0.6c-1.4 0.7-2.2 2.4-2.2 5zm86.5-5.7v53.9h-23.5v-53.9h-16.7v-18.5h56.8v18.5zm69.4 26.6h-23.2v8.7h28.4v18.6h-51.6v-72.4h51l-2.9 18.5h-25v9.7h23.2v16.7z" />
</svg>
