<?xml version="1.0" encoding="UTF-8" standalone="no"?> <svg width="512" height="512" viewBox="0 0 512 512" fill="none" xmlns="http://www.w3.org/2000/svg">
<path d="M472 72H40V384H472V72Z" fill="#03628C"/>
<path d="M265.881 240.465C265.304 237.866 264.086 235.452 262.34 233.442C260.594 231.432 258.373 229.89 255.88 228.955L200 208H152L96.1199 228.955C93.6267 229.89 91.4063 231.432 89.6599 233.442C87.9135 235.452 86.6963 237.866 86.1187 240.465L72 304H280L265.881 240.465Z" fill="#D6CBB9"/>
<path d="M200 208H152L121.553 219.417L160 304H192L230.447 219.417L200 208Z" fill="#F7F3EB"/>
<path d="M40 40H472C476.243 40 480.313 41.6857 483.314 44.6863C486.314 47.6869 488 51.7565 488 56V72H24V56C24 51.7565 25.6857 47.6869 28.6863 44.6863C31.6869 41.6857 35.7565 40 40 40V40Z" fill="#024456"/>
<path d="M416 368H384C379.757 368 375.687 369.686 372.686 372.686C369.686 375.687 368 379.757 368 384V412.223C368 414.707 368.578 417.157 369.689 419.378L374.311 428.622C375.422 430.843 376 433.293 376 435.777V456H424V435.777C424 433.293 424.578 430.843 425.689 428.622L430.311 419.378C431.422 417.157 432 414.707 432 412.223V384C432 379.757 430.314 375.687 427.314 372.686C424.313 369.686 420.243 368 416 368Z" fill="#E8D6D6"/>
<path d="M400 112H304V128H400V112Z" fill="#3497B2"/>
<path d="M336 152H304V168H336V152Z" fill="#3497B2"/>
<path d="M440 152H360V168H440V152Z" fill="#3497B2"/>
<path d="M336 184H304V200H336V184Z" fill="#3497B2"/>
<path d="M440 184H360V200H440V184Z" fill="#3497B2"/>
<path d="M344 216H304V232H344V216Z" fill="#3497B2"/>
<path d="M440 216H360V232H440V216Z" fill="#3497B2"/>
<path d="M264 16H248V40H264V16Z" fill="#03628C"/>
<path d="M440 248H360V264H440V248Z" fill="#3497B2"/>
<path d="M424 280H360V296H424V280Z" fill="#3497B2"/>
<path d="M320 336H288C283.757 336 279.687 337.686 276.686 340.686C273.686 343.687 272 347.757 272 352V380.223C272 382.707 272.578 385.157 273.689 387.378L278.311 396.622C279.422 398.843 280 401.293 280 403.777V424H328V403.777C328 401.293 328.578 398.843 329.689 396.622L334.311 387.378C335.422 385.157 336 382.707 336 380.223V352C336 347.757 334.314 343.687 331.314 340.686C328.313 337.686 324.243 336 320 336V336Z" fill="#E0BFBF"/>
<path d="M224 368H192C187.757 368 183.687 369.686 180.686 372.686C177.686 375.687 176 379.757 176 384V412.223C176 414.707 176.578 417.157 177.689 419.378L182.311 428.622C183.422 430.843 184 433.293 184 435.777V456H232V435.777C232 433.293 232.578 430.843 233.689 428.622L238.311 419.378C239.422 417.157 240 414.707 240 412.223V384C240 379.757 238.314 375.687 235.314 372.686C232.313 369.686 228.243 368 224 368V368Z" fill="#E8D6D6"/>
<path d="M128 336H96C91.7565 336 87.6869 337.686 84.6863 340.686C81.6857 343.687 80 347.757 80 352V372.223C80 374.707 80.5783 377.157 81.6892 379.378L86.3108 388.622C87.4217 390.843 88 393.293 88 395.777V416H136V395.777C136 393.293 136.578 390.843 137.689 388.622L142.311 379.378C143.422 377.157 144 374.707 144 372.223V352C144 347.757 142.314 343.687 139.314 340.686C136.313 337.686 132.243 336 128 336V336Z" fill="#E0BFBF"/>
<path d="M432 456H368V496H432V456Z" fill="#03628C"/>
<path d="M336 424H272V496H336V424Z" fill="#024456"/>
<path d="M336 424H272V456H336V424Z" fill="#03628C"/>
<path d="M240 456H176V496H240V456Z" fill="#024456"/>
<path d="M144 416H80V496H144V416Z" fill="#03628C"/>
<path d="M144 416H80V448H144V416Z" fill="#024456"/>
<path d="M136 144V182.752C136 188.013 137.362 193.184 139.954 197.761C142.546 202.339 146.279 206.167 150.79 208.874H150.79C158.405 213.443 167.119 215.857 176 215.857C184.881 215.857 193.595 213.443 201.21 208.874H201.21C205.721 206.167 209.454 202.339 212.046 197.761C214.638 193.184 216 188.013 216 182.752V144H136Z" fill="#E8D6D6"/>
<path d="M216 144H136V128C136 121.635 138.529 115.53 143.029 111.029C147.53 106.529 153.635 104 160 104H216V144Z" fill="#7F7367"/>
<path d="M184 240H168L154.839 292.645L160 304H192L197.161 292.645L184 240Z" fill="#C93831"/>
<path d="M176 248C184.837 248 192 240.837 192 232C192 223.163 184.837 216 176 216C167.163 216 160 223.163 160 232C160 240.837 167.163 248 176 248Z" fill="#E2493D"/>
</svg>
