<svg version="1.2" xmlns="http://www.w3.org/2000/svg" viewBox="0 0 512 512" width="512" height="512">
	<title>illustrations-tutorials-svg</title>
	<style>
		.s0 { fill: #000000 } 
	</style>
	<g id="Layer">
		<path id="Layer" fill-rule="evenodd" class="s0" d="m435.1 62h46.3q6.2 0.1 11.6 2.2c3.5 1.5 6.8 3.7 9.7 6.6q4.4 4.4 6.6 9.7c1.4 3.6 2.2 7.4 2.2 11.5v45.3c0 4.1-0.8 8-2.2 11.5c-1.5 3.6-3.7 6.9-6.6 9.7c-2.9 3-6.2 5.1-9.7 6.6c-3.6 1.5-7.4 2.2-11.6 2.2h-15q-3.9 5-8.5 9.3c-3.6 3.4-7.4 6.5-11.5 9.1c-4.2 2.8-8.6 5.1-13.3 7.2c-4.7 2-9.7 3.7-14.9 5.1c-1.5 0.4-3.1-0.1-4.3-1.3c-1.6-1.7-1.4-4.4 0.4-6q3.6-3.2 6.2-6.6q2.5-3.2 4-6.6c1.1-2.5 2-5 2.9-7.5q0.5-1.3 0.9-2.7h-14.3q-6.1 0-11.6-2.2c-3.5-1.5-6.8-3.7-9.7-6.6c-2.8-2.9-5.1-6.2-6.5-9.7q-2.2-5.4-2.2-11.5v-45.3q0-6.1 2.2-11.5c1.4-3.6 3.6-6.8 6.5-9.8q4.4-4.3 9.7-6.5c3.7-1.5 7.5-2.2 11.6-2.2h21zm-228.7 27.8h42.9c3.8 0 7.3 0.7 10.7 2.1q4.9 2 9 6.1q4 4 6 8.9c1.4 3.3 2.1 6.9 2.1 10.7v41.8c0 3.8-0.7 7.4-2.1 10.7q-2 4.9-6 9c-2.7 2.7-5.7 4.6-9 6c-3.3 1.4-6.9 2.1-10.7 2.1h-13.8q-3.7 4.6-7.9 8.6c-3.3 3.1-6.9 5.9-10.7 8.4q-5.7 3.8-12.3 6.6c-4.3 1.9-8.9 3.5-13.8 4.8c-1.4 0.3-2.9-0.1-3.9-1.2c-1.4-1.6-1.3-4.1 0.4-5.5c2.2-2 4.2-4.1 5.7-6.1c1.5-2 2.7-4.1 3.7-6.1v-0.1c1-2.2 1.9-4.6 2.7-6.8c0.3-0.8 0.5-1.7 0.8-2.6h-13.2c-3.8 0-7.4-0.7-10.7-2q-4.9-2-9-6.1q-4.1-4.1-6.1-9c-1.3-3.3-2-6.9-2-10.6v-41.9c0-3.8 0.7-7.4 2-10.7q2-4.9 6.1-9c2.7-2.7 5.7-4.7 9-6.1c3.3-1.3 6.8-2 10.7-2h19.4zm-19.4 7.9q-4.2 0-7.7 1.4q-3.5 1.5-6.5 4.4c-1.9 1.9-3.3 4.1-4.3 6.4c-1 2.3-1.5 4.9-1.5 7.7v41.8q0 4.2 1.5 7.7q1.4 3.5 4.3 6.4c2 1.9 4.2 3.5 6.5 4.4c2.3 0.9 4.8 1.4 7.7 1.4h18.4c2.1 0 3.9 1.8 3.9 4c0 0.5-0.2 0.9-0.2 1.3c-0.7 2.6-1.5 5.2-2.4 7.6c-0.9 2.6-1.8 5.1-2.9 7.5c-0.6 1.3-1.2 2.5-1.9 3.7c3.7-1.7 7.3-3.6 10.6-5.7c3.5-2.3 6.7-4.8 9.6-7.6c3-2.8 5.7-5.8 8.2-9.1c0.7-1.1 1.9-1.6 3.1-1.6h15.8q4.2 0 7.6-1.5q3.5-1.4 6.5-4.3q2.9-3 4.4-6.4q1.4-3.6 1.4-7.7v-41.8q0-4.2-1.4-7.7q-1.5-3.5-4.4-6.4q-2.9-2.9-6.4-4.4q-3.5-1.4-7.7-1.5h-19.4zm10.2 49.4c-1.2-1.1-1.8-2.6-1.8-4.2c-0.1-1.5 0.5-3.1 1.7-4.3c1.1-1.2 2.6-1.8 4.2-1.8c1.5-0.1 3.1 0.5 4.3 1.6l7.4 7.1l17.7-21.8c0-0.1 0.2-0.2 0.2-0.2c2.5-2.2 6.3-1.9 8.5 0.5c2.2 2.5 2 6.3-0.4 8.5l-21.9 25.8c0 0-0.1 0.1-0.1 0.1c-1.2 1-2.7 1.5-4.1 1.5c-1.5 0-3-0.6-4.1-1.6zm-112 92.9l12.6 37.1l6.4-22l-3.2-3.4q-2.1-3.1-0.9-5.4c1.7-3.3 5.2-2.7 8.4-2.7c3.5 0 7.7-0.6 8.7 3.7c0.4 1.4 0 2.9-1 4.4l-3.2 3.4l6.4 22l11.5-37.1c8.2 7.4 32.6 8.9 41.7 14c2.9 1.6 5.5 3.7 7.5 6.4c3.2 4.2 5.2 9.7 5.7 16.6l1.8 12v0.1h15.1c3.7 0 7 1.5 9.4 3.9c2.4 2.4 3.9 5.7 3.9 9.4v30.2c0 3.6-1.5 6.9-3.9 9.3v0.1c-2.4 2.4-5.7 3.9-9.4 3.9h2v91.9c0 2.8-1.1 5.3-3 7.1c-1.7 1.8-4.3 3-7 3h-170.2c-2.8 0-5.4-1.2-7.2-3q-0.2-0.2-0.4-0.5c-1.6-1.8-2.5-4.1-2.5-6.6v-92h-1.1c-3.7 0-7-1.5-9.4-3.9c-0.2-0.1-0.3-0.3-0.4-0.4c-2.2-2.3-3.5-5.4-3.5-8.9v-30.2c0-3.6 1.5-6.9 3.9-9.3c0.2-0.2 0.3-0.3 0.5-0.5c2.4-2.2 5.5-3.4 8.9-3.4h15.1v-0.2l1.8-12.1c0.6-6.9 2.5-12.4 5.7-16.5c2-2.8 4.6-4.8 7.5-6.4c9.2-5.1 33.5-6.6 41.8-14zm-58.4 105.9v89.5h165.4v-89.5zm-13.6-44.3q-0.2 0-0.4 0.2l-0.1 0.1c-0.2 0.1-0.3 0.3-0.3 0.5v30.2q0 0.4 0.3 0.6c0.1 0.1 0.3 0.2 0.5 0.2q94.7 0 189.4 0c0.2 0 0.5 0 0.6-0.2c0.1-0.1 0.2-0.3 0.2-0.5v-30.3q0-0.3-0.3-0.5c-0.1-0.1-0.3-0.3-0.5-0.3c-66.5 0-122.8 0-189.4 0zm96.1 104.9c-10.3 0-18.5-8.3-18.5-18.5c0-10.2 8.2-18.4 18.5-18.4c10.2 0 18.5 8.2 18.5 18.4c0 10.2-8.3 18.5-18.5 18.5zm333.1-117.4c3.7 0 7 1.5 9.4 3.9c2.4 2.4 3.9 5.7 3.9 9.4v30.2c0 3.6-1.5 7-3.9 9.3v0.1c-2.4 2.4-5.7 3.9-9.4 3.9h2v91.9c0 2.8-1.1 5.3-3 7.1c-1.7 1.8-4.3 3-7 3h-170.2c-2.8 0-5.4-1.2-7.2-3q-0.2-0.2-0.4-0.5c-1.6-1.8-2.5-4.1-2.5-6.6v-92h-1.1c-3.7 0-7-1.5-9.4-3.9q-0.2-0.2-0.4-0.4c-2.2-2.3-3.5-5.4-3.5-8.9v-30.2c0-3.6 1.5-6.9 3.9-9.3c0.2-0.2 0.4-0.3 0.5-0.5c2.4-2.2 5.5-3.4 8.9-3.4h30.3c2.1-9.5 1.8-19.3 6.5-28.1c2-3.9 4.6-6.3 9.6-9.5c7.8-5 18.5-9 28.9-13.1c-5.5 6.1-10.3 12.5-14 20.2l10.8-0.3l25 22l24.9-22l10.9 0.3c-3.8-7.7-8.5-14.1-14.1-20.2c10.5 4.1 21.1 8.1 29 13.1c5 3.2 7.6 5.6 9.6 9.5c4.7 8.8 4.3 18.5 6.4 28zm-189.5 12.5q-0.2 0-0.4 0.1l-0.1 0.2c-0.1 0.1-0.3 0.3-0.3 0.5v30.2c0 0.3 0.1 0.4 0.3 0.5c0.1 0.2 0.3 0.3 0.5 0.3q94.7 0 189.5 0c0.2 0 0.4-0.1 0.5-0.2c0.1-0.1 0.2-0.3 0.2-0.6v-30.2q0-0.3-0.2-0.5c-0.2-0.2-0.4-0.3-0.6-0.3c-66.5 0-122.9 0-189.4 0zm13.6 44.2v89.5h165.4v-89.5zm82.4 60.7c-10.2 0-18.5-8.3-18.5-18.5c0-10.2 8.3-18.5 18.5-18.5c10.2 0 18.5 8.3 18.5 18.5c0 10.2-8.3 18.5-18.5 18.5zm-37.3-209c2.7-16.5 9-28.4 19.3-35.3c7-4.7 11.1-5 19.2-5c7.2 0 11.5-0.1 17.6 3.9c19.7 13.2 25.9 44.3 16.2 65.2h-9.2q1.4-3.5 2-7.5c0.8-5.8 0.9-10.2-1.7-15.6c-2.2-4.5-5.3-6.9-8.8-8.6c3.7 4.1 6.8 8.2 6 11.5q-6.8-7.5-13.9-13c-10.1-5.2-15.9-12.3-18.6-20.9c-15.5 15.6-17.6 34.1-11.2 54.1l-5.5 0.1l-6.6 0.2c-5.7-6.7-5.3-20.9-4.8-29.1zm30 67.1l5-17.3l-2.5-2.8q-1.6-2.4-0.7-4.2c1.4-2.6 4.1-2.1 6.6-2.1c2.7 0 6-0.5 6.8 2.9c0.3 1.1-0.1 2.2-0.9 3.5l-2.4 2.7l5 17.3l-8.4 6.7zm-199.9-80.3c2 0.6 3.2 1.9 3.7 3.9c0.6 2.2 0 5.3-1.9 9.6q-0.1 0.1-0.1 0.2l-8.1 13.3c-3 5.1-6.2 10.2-10.4 14.1c-4.3 4.1-9.7 6.8-17 6.8c-6.9 0-12-2.6-16.2-6.5c-4.1-3.7-7.2-8.5-10.2-13.3l-7-11.2c-2.6-3.8-3.9-7.3-4-10.2q-0.1-2.1 0.7-3.7q0.8-1.7 2.4-2.8q0.8-0.5 1.7-0.9c-0.4-6-0.6-13.7-0.3-20.1q0.2-2.3 0.9-4.6c1.7-6.4 6.3-11.6 11.9-15.2c1.9-1.2 4.1-2.3 6.4-3.1c13.5-4.9 31.5-2.2 41.1 8.2c3.9 4.2 6.4 9.8 6.9 17.2zm-62.3 2.6q-2.4 0.1-3.6 0.9c-0.4 0.3-0.8 0.7-1 1.1c-0.3 0.5-0.4 1.2-0.4 1.9c0.1 2.2 1.2 5 3.4 8.2v0.1l7 11.2c2.9 4.5 5.8 9.1 9.5 12.5c3.6 3.2 7.9 5.4 13.6 5.4c6.1 0 10.6-2.2 14.3-5.7c3.8-3.6 6.8-8.4 9.7-13.3l8-13.1c1.4-3.3 2-5.6 1.6-6.9c-0.2-0.8-1-1.2-2.5-1.3q-0.4 0-1 0q-0.5 0-1.1 0.1q-0.3 0-0.6-0.1c-0.7 0.1-1.5 0-2.2-0.1l2.7-12c-14.5-0.2-24.4-2.7-36.2-10.2c-3.8-2.5-5-5.3-8.9-5q-4.4 0.8-7.3 3.9q-2.8 3-4.2 8.3l1.5 14.2q-1.2 0-2.3-0.1zm334.5-116.6q-4.5 0.1-8.3 1.6c-2.5 1.1-4.8 2.7-6.9 4.7c-2.1 2.1-3.7 4.4-4.7 6.9q-1.6 3.8-1.6 8.4v45.2q0 4.6 1.6 8.4c1 2.5 2.6 4.8 4.7 6.9c2.2 2 4.5 3.7 7 4.7q3.7 1.5 8.3 1.6h19.9c2.3 0 4.2 1.9 4.2 4.2c0 0.5-0.1 1-0.2 1.5c-0.8 2.7-1.6 5.5-2.5 8.2c-1 2.9-2.1 5.6-3.2 8.2c-0.6 1.3-1.3 2.6-2.1 3.9c4.1-1.7 7.9-3.9 11.5-6.2q5.6-3.7 10.4-8.2c3.2-3 6.2-6.3 8.9-9.9c0.8-1.1 2-1.7 3.3-1.7h17.1c3.1 0 5.8-0.5 8.3-1.5q3.8-1.6 7-4.7c2.1-2.1 3.7-4.5 4.7-7q1.6-3.7 1.6-8.3v-45.2q0-4.6-1.6-8.3c-1-2.5-2.6-4.9-4.7-6.9c-2.1-2.1-4.4-3.7-6.9-4.7q-3.8-1.6-8.3-1.6h-21v-0.2zm44 25.9c0-0.1 0.2-0.2 0.2-0.2c2.5-1.8 6.1-1.3 8 1.2c1.9 2.5 1.5 6-1 8l-9.4 9.9h-0.1c3.6 3.2 7.4 6.6 12 10.8c0 0 0.1 0.2 0.1 0.3c1.9 2.4 1.4 6-1.1 7.9c-2.5 1.9-6.1 1.5-8-1l-10.1-9.7l-9.4 10.9c-1.7 2.6-5.2 3.3-7.9 1.7c-2.6-1.7-3.4-5.1-1.8-7.8c0-0.1 0.1-0.3 0.2-0.3c4.1-4.6 7.4-8.3 10.6-11.9l-10.6-8.9c-2.6-1.7-3.4-5.2-1.7-7.9c1.7-2.6 5.1-3.4 7.8-1.8c0 0 0.2 0.1 0.2 0.2c4.4 4 8.1 7.2 11.5 10.2c3.1-3.5 6.4-7.1 10.5-11.6z" />
	</g>
</svg>