<?xml version="1.0" encoding="UTF-8" standalone="no"?> <svg width="512" height="512" viewBox="0 0 512 512" fill="none" xmlns="http://www.w3.org/2000/svg">
<path d="M392 424H120V496H392V424Z" fill="#C1B6A7"/>
<path d="M93.3455 424C89.9874 424 86.7144 422.943 83.9902 420.98C81.2659 419.016 79.2285 416.245 78.1666 413.06L64.8333 373.06C64.0316 370.655 63.8129 368.093 64.1952 365.587C64.5775 363.081 65.55 360.701 67.0323 358.645C68.5147 356.588 70.4646 354.913 72.7213 353.758C74.978 352.602 77.477 352 80.0122 352H431.988C434.523 352 437.022 352.602 439.279 353.758C441.535 354.913 443.485 356.588 444.968 358.645C446.45 360.701 447.422 363.081 447.805 365.587C448.187 368.093 447.968 370.655 447.167 373.06L433.833 413.06C432.771 416.245 430.734 419.016 428.01 420.98C425.286 422.943 422.013 424 418.654 424H93.3455Z" fill="#D6CBB9"/>
<path d="M432 144L427.73 176L421.37 223.73C417.89 249.851 405.906 274.099 387.27 292.73L368 312V352H144V312L124.73 292.73C106.094 274.099 94.1106 249.851 90.6299 223.73L80 144H128L156.35 229.06C157.414 232.245 159.452 235.015 162.176 236.978C164.9 238.941 168.172 239.998 171.53 240H340.47C343.827 239.998 347.1 238.941 349.824 236.978C352.548 235.015 354.586 232.245 355.65 229.06L373.33 176L384 144H432Z" fill="#03628C"/>
<path d="M320 240L309.81 287.56L296 352H216L202.19 287.56L192 240H320Z" fill="#C6DCE0"/>
<path d="M436.927 88.6367L436.707 87.5339C435.38 80.8976 431.794 74.9261 426.56 70.6355C421.326 66.3448 414.768 64 408 64C401.232 64 394.674 66.3448 389.44 70.6355C384.206 74.9261 380.62 80.8976 379.293 87.5339L379.073 88.6367C378.127 93.3626 378.364 98.2488 379.76 102.861C381.157 107.474 383.671 111.671 387.079 115.079L392 120V144H424V120L428.921 115.079C432.329 111.671 434.843 107.474 436.24 102.861C437.636 98.2488 437.873 93.3626 436.927 88.6367V88.6367Z" fill="#E8D6D6"/>
<path d="M132.927 88.6367L132.707 87.5339C131.38 80.8976 127.794 74.9261 122.56 70.6355C117.326 66.3448 110.768 64 104 64C97.2322 64 90.6735 66.3448 85.4398 70.6355C80.206 74.9261 76.6205 80.8976 75.2932 87.5339L75.0727 88.6367C74.1275 93.3626 74.3637 98.2488 75.7603 102.861C77.1569 107.474 79.6707 111.671 83.0786 115.079L88 120V144H120V120L124.921 115.079C128.329 111.671 130.843 107.474 132.24 102.861C133.636 98.2488 133.872 93.3626 132.927 88.6367Z" fill="#E8D6D6"/>
<path d="M384 144L373.33 176H427.73L432 144H384Z" fill="#3497B2"/>
<path d="M264 288H248L232 352H280L264 288Z" fill="#E2493D"/>
<path d="M320 240L309.81 287.56L272 280H240L202.19 287.56L192 240H320Z" fill="#024456"/>
<path d="M472 64H456V62.627C456.017 56.5014 454.818 50.4334 452.474 44.7741C450.13 39.1149 446.686 33.9768 442.343 29.6572L453.657 18.3428C459.491 24.1448 464.116 31.0463 467.264 38.6476C470.413 46.249 472.022 54.3993 472 62.627V64Z" fill="#D6CBB9"/>
<path d="M469.657 133.657L458.343 122.343L471.029 109.656C473.882 106.819 476.144 103.444 477.684 99.7268C479.224 96.0095 480.011 92.0236 480 88H496C496.017 94.1257 494.819 100.194 492.474 105.853C490.13 111.513 486.687 116.651 482.344 120.971L469.657 133.657Z" fill="#9BCBD3"/>
<path d="M392 24H376V40H392V24Z" fill="#03628C"/>
<path d="M474.343 178.343L450.343 202.343L461.657 213.657L485.657 189.657L474.343 178.343Z" fill="#E2493D"/>
<path d="M458.343 325.657L446.343 313.657C441.667 308.97 439.041 302.62 439.041 296C439.041 289.38 441.667 283.03 446.343 278.343C448.023 276.659 448.966 274.378 448.966 272C448.966 269.622 448.023 267.341 446.343 265.657L442.343 261.657L453.657 250.343L457.657 254.343C462.333 259.03 464.959 265.38 464.959 272C464.959 278.62 462.333 284.97 457.657 289.657C455.977 291.341 455.034 293.622 455.034 296C455.034 298.378 455.977 300.659 457.657 302.343L469.657 314.343L458.343 325.657Z" fill="#03628C"/>
<path d="M50.3428 18.3428L26.3428 42.3428L37.6572 53.6572L61.6572 29.6572L50.3428 18.3428Z" fill="#9BCBD3"/>
<path d="M152 16H136V32H152V16Z" fill="#E2493D"/>
<path d="M34.3428 197.657L30.3428 193.657C25.6671 188.97 23.0413 182.62 23.0413 176C23.0413 169.38 25.6671 163.03 30.3428 158.343C32.0228 156.659 32.9663 154.378 32.9663 152C32.9663 149.622 32.0228 147.341 30.3428 145.657C25.6671 140.97 23.0413 134.62 23.0413 128C23.0413 121.38 25.6671 115.03 30.3428 110.343L42.3428 98.3428L53.6572 109.657L41.6572 121.657C40.8241 122.49 40.1632 123.479 39.7123 124.567C39.2614 125.656 39.0293 126.822 39.0293 128C39.0293 129.178 39.2614 130.345 39.7123 131.433C40.1632 132.521 40.8241 133.51 41.6572 134.343C46.3394 139.026 48.9697 145.378 48.9697 152C48.9697 158.622 46.3394 164.974 41.6572 169.657C39.9772 171.341 39.0337 173.622 39.0337 176C39.0337 178.378 39.9772 180.659 41.6572 182.343L45.6572 186.343L34.3428 197.657Z" fill="#03628C"/>
<path d="M37.6572 293.657L26.3428 282.343L34.3428 274.343C39.2008 269.474 41.9292 262.878 41.9292 256C41.9292 249.122 39.2008 242.526 34.3428 237.657L45.6572 226.343C53.511 234.215 57.9216 244.88 57.9216 256C57.9216 267.12 53.511 277.785 45.6572 285.657L37.6572 293.657Z" fill="#9BCBD3"/>
<path d="M88 304H72V320H88V304Z" fill="#E2493D"/>
<path d="M163.716 400H156.284C150.69 400 145.222 401.659 140.57 404.767C135.919 407.875 132.294 412.292 130.153 417.46C128.012 422.629 127.452 428.316 128.543 433.802C129.635 439.289 132.329 444.329 136.284 448.284L144 456V496H176V456L183.716 448.284C187.671 444.329 190.365 439.289 191.457 433.802C192.548 428.316 191.988 422.629 189.847 417.46C187.706 412.292 184.081 407.875 179.43 404.767C174.778 401.659 169.31 400 163.716 400V400Z" fill="#E8D6D6"/>
<path d="M71.0295 384H56.9705C52.4696 384 48.1531 385.788 44.9705 388.971C41.7879 392.153 40 396.47 40 400.971V400.971C40 403.199 40.439 405.406 41.2919 407.465C42.1447 409.524 43.3948 411.395 44.9707 412.971L56 424V496H88V400.971C88 396.47 86.2121 392.153 83.0295 388.971C79.8469 385.788 75.5304 384 71.0295 384V384Z" fill="#E0BFBF"/>
<path d="M444.813 376H438.797C434.942 376 431.131 376.82 427.617 378.405C424.103 379.99 420.967 382.304 418.416 385.194C415.864 388.084 413.957 391.484 412.82 395.167C411.683 398.85 411.342 402.733 411.82 406.559L413.023 416.186C413.845 422.761 417.04 428.809 422.008 433.195C426.975 437.58 433.374 440 440 440V496H472V403.187C472 395.976 469.136 389.061 464.037 383.963C458.939 378.864 452.024 376 444.813 376Z" fill="#E0BFBF"/>
<path d="M296 496H256L251.33 463.33L248 440H245.94C243.059 440 240.205 439.433 237.543 438.331C234.881 437.228 232.462 435.612 230.425 433.575C228.388 431.538 226.771 429.119 225.669 426.457C224.567 423.795 224 420.941 224 418.06V403.03C223.999 397.748 225.905 392.643 229.366 388.653C232.827 384.663 237.611 382.056 242.84 381.31L264.34 378.24C268.898 377.587 273.546 378.385 277.626 380.521C281.705 382.657 285.009 386.022 287.07 390.14L292.69 401.37C294.096 404.182 294.881 407.264 294.993 410.406C295.104 413.548 294.539 416.677 293.336 419.581C292.133 422.486 290.319 425.098 288.018 427.241C285.717 429.383 282.983 431.006 280 432L286.1 456.38L296 496Z" fill="#E8D6D6"/>
<path d="M296 496H256L251.33 463.33L286.1 456.38L296 496Z" fill="#03628C"/>
<path d="M472 464H440V496H472V464Z" fill="#03628C"/>
<path d="M176 456H144V496H176V456Z" fill="#157B9E"/>
<path d="M359.029 400H344.971C340.47 400 336.153 401.788 332.971 404.971C329.788 408.153 328 412.47 328 416.971C328 419.199 328.439 421.406 329.292 423.465C330.145 425.524 331.395 427.395 332.971 428.971L344 440V496H376V416.971C376 412.47 374.212 408.153 371.029 404.971C367.847 401.788 363.53 400 359.029 400V400Z" fill="#E8D6D6"/>
<path d="M128 144L138.67 176H84.27L80 144H128Z" fill="#3497B2"/>
<path d="M256 296C264.837 296 272 288.837 272 280C272 271.163 264.837 264 256 264C247.163 264 240 271.163 240 280C240 288.837 247.163 296 256 296Z" fill="#C93831"/>
<path d="M224 200V240L255.4 263.55C255.573 263.68 255.784 263.75 256 263.75C256.216 263.75 256.427 263.68 256.6 263.55L288 240V200H224Z" fill="#E0BFBF"/>
<path d="M176 112C171.757 112 167.687 113.686 164.686 116.686C161.686 119.687 160 123.757 160 128C160 132.243 161.686 136.313 164.686 139.314C167.687 142.314 171.757 144 176 144H192V112H176Z" fill="#E0BFBF"/>
<path d="M336 112H320V144H336C340.243 144 344.313 142.314 347.314 139.314C350.314 136.313 352 132.243 352 128V128C352 123.757 350.314 119.687 347.314 116.686C344.313 113.686 340.243 112 336 112Z" fill="#E0BFBF"/>
<path d="M192 72V148.528C192 159.383 194.761 170.059 200.023 179.553C205.285 189.047 212.875 197.047 222.08 202.8C232.252 209.157 244.005 212.528 256 212.528C267.995 212.528 279.748 209.157 289.92 202.8V202.8C299.125 197.047 306.715 189.047 311.977 179.553C317.239 170.059 320 159.383 320 148.528V72H192Z" fill="#E8D6D6"/>
<path d="M224 24C215.513 24 207.374 27.3714 201.373 33.3726C195.371 39.3737 192 47.5131 192 56V80H296C302.303 80 308.545 78.7585 314.369 76.3463C320.192 73.934 325.484 70.3984 329.941 65.9412C334.398 61.4839 337.934 56.1925 340.346 50.3688C342.758 44.5452 344 38.3035 344 32V24H224Z" fill="#7F7367"/>
<path d="M320 104H272C266.092 103.996 260.392 106.18 256 110.131C251.608 106.18 245.908 103.996 240 104H192V120H217.376C215.595 125.024 215.539 130.499 217.215 135.559C218.892 140.619 222.207 144.977 226.636 147.943C231.065 150.909 236.356 152.316 241.673 151.94C246.991 151.565 252.032 149.429 256 145.869C259.969 149.427 265.009 151.561 270.326 151.936C275.642 152.311 280.932 150.904 285.361 147.938C289.789 144.972 293.104 140.616 294.781 135.557C296.458 130.498 296.403 125.024 294.624 120H320V104ZM240 136C238.418 136 236.871 135.531 235.555 134.652C234.24 133.773 233.214 132.523 232.609 131.061C232.003 129.6 231.845 127.991 232.154 126.439C232.462 124.887 233.224 123.462 234.343 122.343C235.462 121.224 236.887 120.462 238.439 120.154C239.991 119.845 241.6 120.003 243.061 120.609C244.523 121.214 245.773 122.24 246.652 123.555C247.531 124.871 248 126.418 248 128C247.998 130.121 247.154 132.154 245.654 133.654C244.154 135.154 242.121 135.998 240 136V136ZM280 128C280 129.582 279.531 131.129 278.652 132.445C277.773 133.76 276.523 134.786 275.061 135.391C273.6 135.997 271.991 136.155 270.439 135.846C268.887 135.538 267.462 134.776 266.343 133.657C265.224 132.538 264.462 131.113 264.154 129.561C263.845 128.009 264.003 126.4 264.609 124.939C265.214 123.477 266.24 122.227 267.555 121.348C268.871 120.469 270.418 120 272 120C274.121 120.002 276.154 120.846 277.654 122.346C279.154 123.846 279.998 125.879 280 128Z" fill="#024456"/>
<path d="M256 192C249.702 192.022 243.524 190.278 238.166 186.967C232.809 183.656 228.486 178.91 225.689 173.267L224.845 171.578L239.155 164.422L240 166.111C241.486 169.083 243.769 171.582 246.595 173.328C249.421 175.075 252.678 176 256 176C259.322 176 262.578 175.075 265.404 173.329C268.23 171.582 270.514 169.084 272 166.112L272.845 164.422L287.155 171.578L286.311 173.268C283.513 178.91 279.191 183.656 273.833 186.967C268.476 190.278 262.298 192.022 256 192Z" fill="#F9807D"/>
<path d="M256 192C262.298 192.022 268.476 190.278 273.833 186.967C279.191 183.656 283.513 178.91 286.311 173.268L287.155 171.578L272.845 164.422L272 166.112C270.514 169.084 268.23 171.582 265.404 173.329C262.578 175.075 259.322 176 256 176C252.678 176 249.421 175.075 246.595 173.328C243.769 171.582 241.486 169.083 240 166.111L239.155 164.422L224.845 171.578L225.689 173.267C228.486 178.91 232.809 183.656 238.166 186.967C243.524 190.278 249.702 192.022 256 192V192Z" fill="black"/>
<path d="M456 64H472V62.627C472.022 54.3993 470.413 46.249 467.264 38.6476C464.116 31.0463 459.491 24.1448 453.657 18.3428L442.343 29.6572C446.686 33.9767 450.13 39.1148 452.474 44.7741C454.818 50.4334 456.017 56.5014 456 62.627V64Z" fill="black"/>
<path d="M458.343 122.343L469.657 133.657L482.344 120.971C486.687 116.651 490.13 111.513 492.474 105.853C494.819 100.194 496.017 94.1257 496 88H480C480.011 92.0236 479.224 96.0095 477.684 99.7268C476.144 103.444 473.882 106.819 471.029 109.656L458.343 122.343Z" fill="black"/>
<path d="M392 24H376V40H392V24Z" fill="black"/>
<path d="M474.343 178.343L450.343 202.343L461.657 213.657L485.657 189.657L474.343 178.343Z" fill="black"/>
<path d="M457.657 254.343L453.657 250.343L442.343 261.657L446.343 265.657C448.023 267.341 448.966 269.622 448.966 272C448.966 274.378 448.023 276.659 446.343 278.343C441.667 283.03 439.041 289.38 439.041 296C439.041 302.62 441.667 308.97 446.343 313.657L458.343 325.657L469.657 314.343L457.657 302.343C455.977 300.659 455.034 298.378 455.034 296C455.034 293.622 455.977 291.341 457.657 289.657C462.333 284.97 464.959 278.62 464.959 272C464.959 265.38 462.333 259.03 457.657 254.343V254.343Z" fill="black"/>
<path d="M50.3428 18.3428L26.3428 42.3428L37.6572 53.6572L61.6572 29.6572L50.3428 18.3428Z" fill="black"/>
<path d="M152 16H136V32H152V16Z" fill="black"/>
<path d="M30.3428 193.657L34.3428 197.657L45.6572 186.343L41.6572 182.343C39.9772 180.659 39.0337 178.378 39.0337 176C39.0337 173.622 39.9772 171.341 41.6572 169.657C46.3394 164.974 48.9697 158.622 48.9697 152C48.9697 145.378 46.3394 139.026 41.6572 134.343C40.8241 133.51 40.1632 132.521 39.7123 131.433C39.2614 130.345 39.0293 129.178 39.0293 128C39.0293 126.822 39.2614 125.656 39.7123 124.567C40.1632 123.479 40.8241 122.49 41.6572 121.657L53.6572 109.657L42.3428 98.3428L30.3428 110.343C25.6671 115.03 23.0413 121.38 23.0413 128C23.0413 134.62 25.6671 140.97 30.3428 145.657C32.0228 147.341 32.9663 149.622 32.9663 152C32.9663 154.378 32.0228 156.659 30.3428 158.343C25.6671 163.03 23.0413 169.38 23.0413 176C23.0413 182.62 25.6671 188.97 30.3428 193.657V193.657Z" fill="black"/>
<path d="M45.6572 285.657C53.511 277.785 57.9216 267.12 57.9216 256C57.9216 244.88 53.511 234.215 45.6572 226.343L34.3428 237.657C39.2008 242.526 41.9292 249.122 41.9292 256C41.9292 262.878 39.2008 269.474 34.3428 274.343L26.3428 282.343L37.6572 293.657L45.6572 285.657Z" fill="black"/>
<path d="M88 304H72V320H88V304Z" fill="black"/>
<path d="M457.68 370.45C458.021 367.109 457.657 363.734 456.613 360.542C455.568 357.351 453.865 354.414 451.615 351.921C449.364 349.428 446.616 347.435 443.547 346.071C440.479 344.707 437.158 344.001 433.8 344H376V315.31L392.93 298.38C412.763 278.479 425.536 252.633 429.3 224.79L441.14 136H432V123.31L434.58 120.74C438.923 116.403 442.127 111.06 443.905 105.185C445.682 99.3105 445.98 93.0874 444.77 87.0701L444.55 85.96C442.859 77.5113 438.293 69.9093 431.63 64.4472C424.966 58.985 416.616 56 408 56C399.384 56 391.034 58.985 384.37 64.4472C377.707 69.9093 373.141 77.5113 371.45 85.96L371.23 87.0701C370.02 93.0874 370.318 99.3105 372.095 105.185C373.873 111.06 377.077 116.403 381.42 120.74L384 123.31V136H378.23L348.06 226.53C347.53 228.124 346.512 229.51 345.149 230.492C343.787 231.474 342.149 232.001 340.47 232H296V208.39C305.383 202.167 313.164 193.816 318.709 184.017C324.254 174.218 327.407 163.248 327.91 152H336C342.365 152 348.47 149.471 352.971 144.971C357.471 140.47 360 134.365 360 128C360 121.635 357.471 115.53 352.971 111.029C348.47 106.529 342.365 104 336 104H328V77.9199C335.405 72.7666 341.455 65.8997 345.633 57.9042C349.812 49.9088 351.996 41.0217 352 32V16H224C213.395 16.0106 203.227 20.2283 195.727 27.7275C188.228 35.2266 184.011 45.3946 184 56V104H176C169.635 104 163.53 106.529 159.029 111.029C154.529 115.53 152 121.635 152 128C152 134.365 154.529 140.47 159.029 144.971C163.53 149.471 169.635 152 176 152H184.09C184.593 163.248 187.746 174.218 193.291 184.017C198.836 193.816 206.617 202.167 216 208.39V232H171.53C169.851 232.001 168.213 231.474 166.851 230.492C165.488 229.51 164.47 228.124 163.94 226.53L133.77 136H128V123.31L130.58 120.74C134.923 116.403 138.127 111.06 139.905 105.185C141.682 99.3105 141.98 93.0874 140.77 87.0701L140.55 85.96C138.859 77.5113 134.294 69.9093 127.63 64.4471C120.966 58.985 112.616 56 104 56C95.3837 56 87.0336 58.985 80.3699 64.4471C73.7063 69.9093 69.1407 77.5113 67.4499 85.96L67.2299 87.0701C66.0201 93.0874 66.3175 99.3105 68.0954 105.185C69.8733 111.06 73.0766 116.403 77.4199 120.74L80 123.31V136H70.8598L82.7 224.79C86.4637 252.633 99.2374 278.479 119.07 298.38L136 315.31V344H78.2C74.3973 344.001 70.6491 344.905 67.2643 346.638C63.8794 348.371 60.9548 350.883 58.7312 353.968C56.5076 357.053 55.0488 360.622 54.4748 364.381C53.9009 368.14 54.2283 371.982 55.43 375.59L55.5801 376.04C50.7675 376.309 46.1356 377.965 42.2433 380.808C38.351 383.651 35.3646 387.56 33.6444 392.063C31.9243 396.566 31.544 401.47 32.5493 406.184C33.5546 410.898 35.9027 415.221 39.3101 418.63L48 427.31V496H64V420.69L50.6299 407.31C49.7923 406.481 49.1283 405.493 48.6767 404.405C48.2252 403.316 47.9951 402.148 48 400.97C48.0014 398.591 48.9469 396.31 50.6288 394.629C52.3107 392.947 54.5915 392.001 56.97 392H71.03C73.4085 392.001 75.6892 392.947 77.3711 394.629C79.053 396.31 79.9986 398.591 80 400.97V496H96V432H120.19C121.023 440.302 124.713 448.057 130.63 453.94L136 459.31V496H152V464H168V496H184V459.31L189.37 453.94C195.286 448.057 198.977 440.302 199.81 432H219.45C221.604 436.079 224.668 439.607 228.405 442.31C232.142 445.014 236.452 446.82 241 447.59L247.92 496H264.08L260.32 469.69L280.18 465.72L287.75 496H304.27L289.33 436.32C291.239 435.085 293.001 433.635 294.58 432H325.03C325.727 432.93 326.489 433.808 327.31 434.63L336 443.31V496H352V436.69L338.63 423.31C337.792 422.481 337.128 421.493 336.677 420.405C336.225 419.316 335.995 418.148 336 416.97C336.001 414.591 336.947 412.311 338.629 410.629C340.311 408.947 342.591 408.001 344.97 408H359.03C361.409 408.001 363.689 408.947 365.371 410.629C367.053 412.311 367.999 414.591 368 416.97V496H384V432H410.53C415.483 439.599 423.172 444.999 432 447.08V496H448V472H464V496H480V403.19C479.992 396.124 477.859 389.223 473.879 383.385C469.899 377.546 464.255 373.04 457.68 370.45V370.45ZM184 136H176C173.878 136 171.843 135.157 170.343 133.657C168.843 132.157 168 130.122 168 128C168 125.878 168.843 123.843 170.343 122.343C171.843 120.843 173.878 120 176 120H184V136ZM386.92 90.21L387.14 89.1001C388.105 84.278 390.71 79.9391 394.513 76.8214C398.317 73.7038 403.082 72 408 72C412.918 72 417.683 73.7038 421.487 76.8214C425.29 79.9391 427.895 84.278 428.86 89.1001L429.08 90.21C429.773 93.6436 429.604 97.1954 428.588 100.548C427.573 103.9 425.742 106.948 423.26 109.42L416 116.69V136H400V116.69L392.74 109.42C390.258 106.948 388.427 103.9 387.412 100.548C386.396 97.1954 386.227 93.6436 386.92 90.21V90.21ZM389.77 152H422.86L420.73 168H384.43L389.77 152ZM340.47 248C345.508 248.004 350.419 246.42 354.507 243.474C358.594 240.529 361.65 236.37 363.24 231.59L379.1 184H418.6L413.44 222.67C410.148 247.035 398.973 269.653 381.62 287.07L360 308.69V344H305.9L326.47 248H340.47ZM310.1 248L303.64 278.17L279.03 273.25C277.754 268.928 275.29 265.051 271.92 262.06L290.67 248H310.1ZM300.29 293.82L289.53 344H286.25L274.16 295.66C275.785 293.781 277.111 291.663 278.09 289.38L300.29 293.82ZM252.32 303.72C254.759 304.093 257.241 304.093 259.68 303.72L269.75 344H242.25L252.32 303.72ZM248 280C248 278.418 248.469 276.871 249.348 275.555C250.227 274.24 251.477 273.214 252.939 272.609C254.4 272.003 256.009 271.845 257.561 272.154C259.113 272.462 260.538 273.224 261.657 274.343C262.776 275.462 263.538 276.887 263.846 278.439C264.155 279.991 263.997 281.6 263.391 283.061C262.786 284.523 261.76 285.773 260.445 286.652C259.129 287.531 257.582 288 256 288C253.879 287.997 251.846 287.153 250.346 285.654C248.847 284.154 248.003 282.121 248 280V280ZM256 254L232 236V216.37C247.538 221.81 264.462 221.81 280 216.37V236L256 254ZM336 120C338.122 120 340.157 120.843 341.657 122.343C343.157 123.843 344 125.878 344 128C344 130.122 343.157 132.157 341.657 133.657C340.157 135.157 338.122 136 336 136H328V120H336ZM200 56C200.008 49.6374 202.54 43.5378 207.039 39.0388C211.538 34.5397 217.637 32.0084 224 32H336C335.989 42.6054 331.772 52.7734 324.273 60.2725C316.773 67.7717 306.605 71.9894 296 72H200V56ZM200 88H296C301.418 87.9985 306.808 87.2102 312 85.6599V104H272C266.092 103.996 260.392 106.179 256 110.13C251.608 106.179 245.908 103.996 240 104H200V88ZM280 128C280 129.582 279.531 131.129 278.652 132.445C277.773 133.76 276.523 134.786 275.061 135.391C273.6 135.997 271.991 136.155 270.439 135.846C268.887 135.538 267.462 134.776 266.343 133.657C265.224 132.538 264.462 131.113 264.154 129.561C263.845 128.009 264.003 126.4 264.609 124.939C265.214 123.477 266.24 122.227 267.555 121.348C268.871 120.469 270.418 120 272 120C274.121 120.003 276.154 120.847 277.654 122.346C279.153 123.846 279.997 125.879 280 128V128ZM248 128C248 129.582 247.531 131.129 246.652 132.445C245.773 133.76 244.523 134.786 243.061 135.391C241.6 135.997 239.991 136.155 238.439 135.846C236.887 135.538 235.462 134.776 234.343 133.657C233.224 132.538 232.462 131.113 232.154 129.561C231.845 128.009 232.003 126.4 232.609 124.939C233.214 123.477 234.24 122.227 235.555 121.348C236.871 120.469 238.418 120 240 120C242.121 120.003 244.154 120.847 245.654 122.346C247.153 123.846 247.997 125.879 248 128V128ZM200 148.53V120H217.38C215.598 125.024 215.541 130.498 217.218 135.558C218.894 140.618 222.208 144.976 226.637 147.942C231.066 150.909 236.357 152.316 241.674 151.941C246.991 151.565 252.032 149.429 256 145.87C259.968 149.43 265.009 151.566 270.326 151.942C275.644 152.318 280.935 150.911 285.364 147.944C289.793 144.977 293.107 140.62 294.784 135.559C296.46 130.499 296.402 125.024 294.62 120H312V148.53C312.03 158.034 309.626 167.387 305.02 175.7C300.413 184.012 293.755 191.008 285.68 196.02C276.766 201.543 266.487 204.469 256 204.469C245.513 204.469 235.235 201.543 226.32 196.02C218.245 191.008 211.588 184.012 206.981 175.7C202.374 167.387 199.97 158.034 200 148.53V148.53ZM221.33 248L240.08 262.06C236.71 265.051 234.247 268.928 232.97 273.25L208.36 278.17L201.9 248H221.33ZM237.84 295.66L225.75 344H222.47L211.71 293.82L233.91 289.38C234.885 291.665 236.211 293.784 237.84 295.66H237.84ZM82.9199 90.21L83.1401 89.1001C84.1048 84.278 86.7103 79.9391 90.5134 76.8214C94.3165 73.7038 99.0823 72 104 72C108.918 72 113.683 73.7038 117.487 76.8214C121.29 79.9391 123.895 84.278 124.86 89.1001L125.08 90.21C125.773 93.6436 125.604 97.1954 124.588 100.548C123.573 103.9 121.742 106.948 119.26 109.42L112 116.69V136H96V116.69L88.74 109.42C86.258 106.948 84.4273 103.9 83.4117 100.548C82.396 97.1953 82.227 93.6436 82.9199 90.21V90.21ZM89.1401 152H122.23L127.57 168H91.27L89.1401 152ZM130.38 287.07C113.027 269.653 101.852 247.035 98.56 222.67L93.3999 184H132.9L148.76 231.59C150.35 236.37 153.406 240.529 157.493 243.474C161.581 246.42 166.492 248.004 171.53 248H185.53L206.1 344H152V308.69L130.38 287.07ZM178.06 442.63L172.69 448H147.31L141.94 442.63C139.104 439.793 137.172 436.179 136.39 432.244C135.607 428.31 136.009 424.232 137.543 420.525C139.078 416.819 141.677 413.651 145.012 411.421C148.347 409.192 152.268 408.001 156.28 408H163.72C167.732 408.001 171.653 409.192 174.988 411.421C178.323 413.651 180.922 416.819 182.457 420.525C183.991 424.232 184.393 428.31 183.61 432.244C182.828 436.179 180.896 439.793 178.06 442.63H178.06ZM285.94 416.52C285.177 418.366 284.025 420.026 282.564 421.387C281.102 422.749 279.365 423.78 277.47 424.41L270.44 426.75L276.3 450.18L258.06 453.83L254.94 432H245.94C242.244 431.997 238.7 430.527 236.086 427.914C233.473 425.3 232.003 421.756 232 418.06V403.03C232.015 399.678 233.231 396.443 235.427 393.911C237.623 391.379 240.654 389.718 243.97 389.23L265.48 386.16C268.376 385.742 271.33 386.247 273.923 387.604C276.515 388.961 278.614 391.101 279.92 393.72L285.53 404.95C286.425 406.736 286.924 408.694 286.995 410.69C287.066 412.687 286.706 414.675 285.94 416.52V416.52ZM412.42 379.9C409.118 383.64 406.649 388.039 405.176 392.806C403.704 397.573 403.262 402.599 403.88 407.55L404.94 416H383.98C383.72 409.554 380.979 403.458 376.329 398.985C371.68 394.513 365.482 392.01 359.03 392H344.97C338.518 392.01 332.32 394.513 327.671 398.985C323.021 403.458 320.28 409.554 320.02 416H302.6C303.619 409.791 302.653 403.418 299.84 397.79L294.23 386.57C291.421 380.946 286.913 376.35 281.345 373.433C275.777 370.516 269.432 369.427 263.21 370.32L241.71 373.39C234.587 374.436 228.074 378.002 223.357 383.441C218.639 388.879 216.029 395.83 216 403.03V416H197.86C195.323 408.978 190.685 402.907 184.577 398.613C178.468 394.32 171.186 392.01 163.72 392H156.28C148.814 392.01 141.531 394.32 135.423 398.613C129.315 402.907 124.677 408.978 122.14 416H96V400.97C95.9918 394.596 93.5495 388.465 89.1722 383.831C84.795 379.198 78.8134 376.411 72.45 376.04L70.6099 370.53C70.2087 369.327 70.0991 368.046 70.2902 366.793C70.4813 365.54 70.9675 364.35 71.7088 363.321C72.4501 362.293 73.4253 361.456 74.5539 360.878C75.6825 360.301 76.9322 360 78.2 360H433.8C434.851 359.999 435.891 360.206 436.862 360.608C437.833 361.01 438.715 361.599 439.458 362.342C440.201 363.085 440.79 363.967 441.192 364.938C441.594 365.909 441.8 366.949 441.8 368H438.8C433.811 368.001 428.878 369.062 424.33 371.114C419.782 373.165 415.723 376.16 412.42 379.9L412.42 379.9ZM464 456H448V432H440C435.325 431.993 430.813 430.282 427.308 427.188C423.803 424.094 421.546 419.828 420.96 415.19L419.76 405.57C419.421 402.87 419.661 400.129 420.463 397.528C421.265 394.928 422.611 392.528 424.412 390.488C426.213 388.448 428.427 386.814 430.908 385.696C433.388 384.577 436.079 383.999 438.8 384H444.81C449.898 384.006 454.775 386.03 458.373 389.627C461.97 393.225 463.994 398.102 464 403.19V456Z" fill="black"/>
</svg>
