<svg version="1.2" xmlns="http://www.w3.org/2000/svg" viewBox="0 0 1000 420" width="1000" height="420">
	<title>HeaderImg</title>
	<style>
	</style>
	<path id="VLAD" fill="#2a91df" aria-label="VLAD"  d="m20.98 40.33q0.06-9.96 14.91-9.87l13.67 0.09q5.66 0.03 8.78 0.64q3.12 0.6 7.4 4.34q4.47 3.54 6.77 10.78l45.21 140.91q3.46 9.99 12.05 41.29q8.62 27.59 10.31 37.76h0.39q4.05-22.43 28.52-93.77l41.99-124.93q3.19-10.33 8.09-13.04q5.09-2.9 15.25-2.83l7.62 0.04q14.65 0.1 14.58 9.86q-0.01 2.15-2 7.8l-81.99 243.83q-2.39 7.21-7.1 10.9q-4.51 3.48-7.83 4.05q-3.13 0.56-8.21 0.53l-24.41-0.15q-5.67-0.03-8.98-0.64q-3.13-0.61-7.6-4.15q-4.27-3.74-6.57-11.37l-78.94-244.44q-1.92-5.68-1.91-7.63zm275.98 251.33l1.5-241.59q0.07-10.75 3.8-14.24q3.93-3.68 14.28-3.62l13.29 0.08q10.74 0.07 14.03 4q3.5 3.73 3.43 13.69l-1.4 225.19q9.96 0.06 45.51-0.5q35.55-0.56 45.71-0.49q8.01 0.05 11.7 3q3.89 2.95 4.45 6.28q0.57 3.13 0.53 9.18q-0.06 9.96-3.41 14.04q-3.14 3.89-14.28 3.82l-121.28-0.76q-10.75-0.06-14.43-3.8q-3.49-3.93-3.43-14.28zm186.66 9.17q0 0 1.61-6.43l78.68-246q4.97-14.62 22.55-14.51q0.2 0 0.39 0l22.85 0.15q5.67 0.03 8.79 0.44q3.12 0.41 7.2 4.15q4.28 3.54 6.57 10.78l75.81 247.16q1.53 4.5 1.53 5.67q-0.07 9.96-15.3 9.87l-13.67-0.09q-12.31-0.07-16.57-4.59q-4.08-4.72-9.25-21.16l-12.82-42.85l-96.87-0.6l-17.12 52.24q-1.6 5.65-3.37 8.37q-1.58 2.73-6.48 5.24q-4.7 2.31-13.1 2.26l-6.25-0.04q-15.24-0.1-15.18-10.06zm94.59-165.04l-23.72 77.01l78.51 0.49l-22-74.17q-14.53-49.31-16.4-62.79l-0.39-0.01q-2.04 13.66-16 59.47zm178.12 158.73l1.5-241.59q0.07-10.74 3.8-14.24q3.93-3.68 14.28-3.62l87.3 0.55q27.54 0.17 51.3 11.06q23.76 10.89 38.28 32.27q25.36 36.87 24.97 98.2q-0.41 67.19-32.08 102.54q-29.51 33.8-83.8 33.46l-87.7-0.55q-10.74-0.06-14.43-3.8q-3.49-3.92-3.42-14.28zm49.08-229.38l-1.35 217.57l44.72 0.28q16.8 0.11 29.91-4.11q13.31-4.41 21.55-10.61q8.25-6.39 14.37-16.9q6.12-10.71 8.9-19.09q2.79-8.38 4.43-20.67q1.83-12.49 2.07-18.54q0.23-6.25 0.29-16.21q0.07-10.16-0.09-16.41q-0.15-6.45-1.83-19.35q-1.48-13.09-4.16-21.7q-2.68-8.62-8.67-19.59q-5.99-11.17-14.34-18.06q-8.36-6.89-21.61-11.46q-13.06-4.77-29.85-4.88z" />
	<path id="FOR NY STATE ASSEMBLY" fill="#2a91df" aria-label="FOR NY STATE ASSEMBLY"  d="m36.51 392v-54.68h31.42v6.23h-24.03v16.11h21.68v6.23h-21.68v26.11zm65.33-49.66q-8.05 0-12.81 6.01q-4.73 6-4.73 16.37q0 10.32 4.73 16.33q4.76 6.01 12.81 6.01q8.06 0 12.75-6.01q4.72-6.01 4.72-16.33q0-10.37-4.72-16.37q-4.69-6.01-12.75-6.01zm0-6q11.5 0 18.39 7.72q6.88 7.69 6.88 20.66q0 12.92-6.88 20.65q-6.89 7.69-18.39 7.69q-11.53 0-18.45-7.69q-6.89-7.69-6.89-20.65q0-12.97 6.89-20.66q6.92-7.72 18.45-7.72zm62.77 30.03q2.38 0.8 4.62 3.44q2.27 2.63 4.54 7.25l7.51 14.94h-7.95l-7-14.03q-2.71-5.49-5.27-7.28q-2.53-1.8-6.92-1.8h-8.06v23.11h-7.39v-54.68h16.69q9.38 0 13.99 3.92q4.62 3.92 4.62 11.83q0 5.17-2.42 8.57q-2.38 3.41-6.96 4.73zm-9.23-22.97h-9.3v19.41h9.3q5.35 0 8.06-2.45q2.75-2.49 2.75-7.29q0-4.8-2.75-7.21q-2.71-2.46-8.06-2.46zm59.26 48.6v-54.68h9.96l24.24 45.74v-45.74h7.18v54.68h-9.96l-24.24-45.74v45.74zm67.93-26.04l-19.34-28.64h7.95l15.16 22.49l15.05-22.49h7.95l-19.34 28.64v26.04h-7.43zm90.6-26.84v7.21q-4.21-2.01-7.95-3q-3.73-0.99-7.21-0.99q-6.05 0-9.34 2.34q-3.26 2.35-3.26 6.67q0 3.62 2.16 5.49q2.2 1.83 8.28 2.97l4.46 0.91q8.28 1.58 12.2 5.57q3.95 3.95 3.95 10.62q0 7.95-5.34 12.05q-5.31 4.1-15.6 4.1q-3.89 0-8.28-0.88q-4.36-0.88-9.05-2.6v-7.62q4.51 2.53 8.83 3.81q4.32 1.28 8.5 1.28q6.33 0 9.77-2.49q3.45-2.49 3.45-7.1q0-4.03-2.49-6.3q-2.46-2.27-8.1-3.41l-4.5-0.87q-8.28-1.65-11.98-5.17q-3.69-3.51-3.69-9.78q0-7.25 5.09-11.42q5.12-4.18 14.09-4.18q3.85 0 7.84 0.7q3.99 0.7 8.17 2.09zm7.25 4.43v-6.23h46.25v6.23h-19.41v48.45h-7.43v-48.45zm75.91 28.27l-10.07-27.21l-10.03 27.21zm-35.12 20.18l20.87-54.68h8.39l20.84 54.68h-7.69l-4.98-14.03h-24.65l-4.98 14.03zm44.68-48.45v-6.23h46.25v6.23h-19.41v48.45h-7.43v-48.45zm53.39 48.45v-54.68h34.57v6.23h-27.17v16.18h26.03v6.23h-26.03v19.81h27.83v6.23zm99.57-20.18l-10.07-27.21l-10.03 27.21zm-35.12 20.18l20.87-54.68h8.39l20.84 54.68h-7.7l-4.98-14.03h-24.64l-4.98 14.03zm90.85-52.88v7.21q-4.21-2.01-7.94-3q-3.74-0.99-7.22-0.99q-6.04 0-9.33 2.34q-3.26 2.35-3.26 6.67q0 3.62 2.16 5.49q2.19 1.83 8.27 2.97l4.47 0.91q8.28 1.58 12.2 5.57q3.95 3.95 3.95 10.62q0 7.95-5.35 12.05q-5.31 4.1-15.6 4.1q-3.88 0-8.27-0.88q-4.36-0.88-9.05-2.6v-7.62q4.51 2.53 8.83 3.81q4.32 1.28 8.49 1.28q6.34 0 9.78-2.49q3.44-2.49 3.44-7.1q0-4.03-2.49-6.3q-2.45-2.27-8.09-3.41l-4.5-0.87q-8.28-1.65-11.98-5.17q-3.7-3.51-3.7-9.78q0-7.25 5.09-11.42q5.13-4.18 14.1-4.18q3.85 0 7.84 0.7q3.99 0.7 8.16 2.09zm47.61 0v7.21q-4.21-2.01-7.94-3q-3.74-0.99-7.22-0.99q-6.04 0-9.34 2.34q-3.26 2.35-3.26 6.67q0 3.62 2.16 5.49q2.2 1.83 8.28 2.97l4.47 0.91q8.27 1.58 12.19 5.57q3.96 3.95 3.96 10.62q0 7.95-5.35 12.05q-5.31 4.1-15.6 4.1q-3.88 0-8.28-0.88q-4.35-0.88-9.04-2.6v-7.62q4.5 2.53 8.82 3.81q4.33 1.28 8.5 1.28q6.34 0 9.78-2.49q3.44-2.49 3.44-7.1q0-4.03-2.49-6.3q-2.45-2.27-8.09-3.41l-4.51-0.87q-8.27-1.65-11.97-5.17q-3.7-3.51-3.7-9.78q0-7.25 5.09-11.42q5.13-4.18 14.1-4.18q3.84 0 7.84 0.7q3.99 0.7 8.16 2.09zm14.83 52.88v-54.68h34.57v6.23h-27.17v16.18h26.04v6.23h-26.04v19.81h27.83v6.23zm47.39 0v-54.68h11.02l13.96 37.21l14.02-37.21h11.03v54.68h-7.22v-48.01l-14.1 37.5h-7.43l-14.1-37.5v48.01zm83.97-26.11h-11.86v20.03h11.86q5.97 0 8.83-2.46q2.89-2.49 2.89-7.58q0-5.12-2.89-7.54q-2.86-2.45-8.83-2.45zm-0.91-22.49h-10.95v16.48h10.95q5.42 0 8.05-2.01q2.68-2.05 2.68-6.23q0-4.14-2.68-6.19q-2.63-2.05-8.05-2.05zm-18.35 48.6v-54.68h18.89q8.46 0 13.04 3.52q4.58 3.51 4.58 10q0 5.01-2.34 7.98q-2.35 2.97-6.89 3.7q5.46 1.17 8.46 4.9q3.04 3.7 3.04 9.27q0 7.32-4.98 11.32q-4.98 3.99-14.17 3.99zm51.45 0v-54.68h7.4v48.45h26.62v6.23zm43.65-26.04l-19.33-28.64h7.94l15.16 22.49l15.06-22.49h7.94l-19.33 28.64v26.04h-7.44z" />
</svg>